<svg xmlns="http://www.w3.org/2000/svg" width="754" height="278" fill="none"><path d="M126.1.73v61.5l69.56 38.43 55.66-30.76L126.1.73Z" fill="url(#a)"/><path d="M126.1.73.87 69.9l55.67 30.76 69.56-38.43V.73Z" fill="url(#b)"/><path d="M.87 69.9v138.38l55.67-30.75v-76.87L.87 69.9Z" fill="#007DF2"/><path d="m56.54 177.53 69.56 38.42v61.51L.87 208.28l55.67-30.75Z" fill="url(#c)"/><path d="m195.66 177.53 55.66 30.75-125.22 69.18v-61.5l69.56-38.43Z" fill="#007DF2"/><path d="M106.88 126.64h82.17V104.5H89.43l17.45 22.14Z" fill="url(#d)"/><path d="m251.32 69.9-104.13 56.7h104.13V69.9Z" fill="#007DF2"/><path d="M89.43 143.25v19.37h40.3l20.58-19.37H89.43Z" fill="url(#e)"/><path d="M86.66 188.91V105.2l20.76 25.6v58.11H86.66Z" fill="url(#f)"/><path d="M311.15 163.06V93.35h45.03v10.94h-33.36v17.18h27.55v10.95h-27.55v19.7h33.36v10.94h-45.03ZM382.41 164.51c-3.78 0-6.97-.7-9.59-2.13a15.06 15.06 0 0 1-5.95-5.76 16 16 0 0 1-1.98-7.89c0-2.52.42-4.77 1.25-6.78a13.36 13.36 0 0 1 3.88-5.22c1.74-1.49 4-2.7 6.78-3.64 2.1-.67 4.55-1.29 7.35-1.84 2.84-.54 5.91-1.04 9.2-1.5 3.33-.48 6.8-1 10.41-1.54l-4.16 2.37c.03-3.62-.78-6.28-2.42-8-1.65-1.7-4.43-2.56-8.33-2.56-2.36 0-4.63.55-6.83 1.65-2.2 1.1-3.72 2.98-4.6 5.66L366.77 124a19.8 19.8 0 0 1 7.36-10.65c3.65-2.68 8.56-4.02 14.72-4.02 4.65 0 8.73.76 12.25 2.28a15.2 15.2 0 0 1 7.89 7.46c.94 1.83 1.5 3.72 1.7 5.66.19 1.9.28 3.99.28 6.24v32.1h-10.21v-11.33l1.7 1.84c-2.36 3.78-5.12 6.55-8.28 8.33-3.14 1.74-7.06 2.61-11.77 2.61Zm2.32-9.3c2.65 0 4.91-.46 6.78-1.4a13.21 13.21 0 0 0 4.46-3.43 11.88 11.88 0 0 0 2.27-3.83c.62-1.48.95-3.18 1.02-5.08.1-1.94.14-3.5.14-4.7l3.59 1.07c-3.52.55-6.54 1.03-9.06 1.45-2.51.42-4.68.82-6.48 1.21-1.81.36-3.4.76-4.8 1.21-1.35.49-2.5 1.05-3.43 1.7a7.5 7.5 0 0 0-2.18 2.22 5.8 5.8 0 0 0-.73 2.96c0 1.29.32 2.43.97 3.43a6.74 6.74 0 0 0 2.8 2.33c1.27.58 2.81.87 4.66.87ZM443.76 164.51c-6.45 0-11.7-1.45-15.73-4.35-4.03-2.9-6.49-7-7.36-12.25l11.91-1.84a10.06 10.06 0 0 0 4.07 6.1c2.1 1.48 4.74 2.23 7.94 2.23 2.8 0 4.97-.55 6.49-1.65a5.4 5.4 0 0 0 2.32-4.6c0-1.2-.3-2.15-.87-2.86-.55-.74-1.78-1.45-3.68-2.13-1.9-.67-4.83-1.53-8.76-2.56a53.55 53.55 0 0 1-10.46-3.73c-2.58-1.36-4.44-2.95-5.57-4.8a12.54 12.54 0 0 1-1.7-6.67c0-3.26.86-6.1 2.57-8.52a16.23 16.23 0 0 1 7.17-5.57c3.06-1.32 6.68-1.99 10.84-1.99 4.07 0 7.67.63 10.8 1.9a18.76 18.76 0 0 1 7.65 5.37 16.11 16.11 0 0 1 3.58 8.18l-11.91 2.13a7.5 7.5 0 0 0-3.05-5.28c-1.71-1.29-4-2.02-6.88-2.18-2.74-.16-4.95.26-6.63 1.26-1.68.97-2.51 2.34-2.51 4.12 0 1 .33 1.85 1.01 2.56.68.71 2.04 1.42 4.07 2.13 2.06.71 5.13 1.58 9.2 2.62 4.16 1.06 7.49 2.29 9.97 3.68 2.52 1.35 4.32 2.98 5.42 4.88 1.13 1.9 1.7 4.22 1.7 6.93 0 5.26-1.92 9.39-5.76 12.4-3.81 3-9.09 4.5-15.84 4.5ZM480.94 186.3l10.07-27.65.2 8.14-22.8-56.01h12.15l16.17 41.44h-3.1l15.73-41.44h11.67l-29.15 75.52h-10.94ZM528.25 163.06V93.35h41.97v11.67h-30.3v17.38h24.5V134h-24.5v29.05h-11.67ZM579.9 163.06V91.9h11.66v71.16H579.9ZM629.84 164.51c-5.3 0-9.95-1.14-13.95-3.43-4-2.3-7.13-5.47-9.39-9.54-2.23-4.07-3.34-8.75-3.34-14.04 0-5.71 1.1-10.67 3.3-14.86 2.19-4.23 5.24-7.5 9.14-9.83 3.9-2.32 8.43-3.49 13.56-3.49 5.42 0 10.02 1.28 13.8 3.83a22.32 22.32 0 0 1 8.47 10.7c1.84 4.61 2.53 10.05 2.08 16.31h-11.57v-4.26c-.03-5.68-1.03-9.83-3-12.44-1.97-2.61-5.07-3.92-9.3-3.92-4.77 0-8.32 1.48-10.65 4.45-2.32 2.94-3.48 7.25-3.48 12.93 0 5.3 1.16 9.4 3.48 12.3 2.33 2.9 5.71 4.35 10.17 4.35 2.87 0 5.34-.63 7.4-1.89a12.6 12.6 0 0 0 4.85-5.56l11.52 3.48c-2 4.72-5.1 8.38-9.3 11a25.43 25.43 0 0 1-13.8 3.91Zm-18.01-24.35v-8.8h35.97v8.8h-35.97ZM688.08 164.51c-5.3 0-9.94-1.14-13.94-3.43-4-2.3-7.13-5.47-9.4-9.54-2.22-4.07-3.33-8.75-3.33-14.04 0-5.71 1.1-10.67 3.29-14.86 2.2-4.23 5.24-7.5 9.15-9.83 3.9-2.32 8.42-3.49 13.55-3.49 5.43 0 10.02 1.28 13.8 3.83a22.34 22.34 0 0 1 8.47 10.7c1.84 4.61 2.54 10.05 2.08 16.31h-11.57v-4.26c-.03-5.68-1.03-9.83-3-12.44-1.97-2.61-5.06-3.92-9.3-3.92-4.77 0-8.32 1.48-10.64 4.45-2.33 2.94-3.49 7.25-3.49 12.93 0 5.3 1.16 9.4 3.49 12.3 2.32 2.9 5.7 4.35 10.16 4.35 2.88 0 5.35-.63 7.41-1.89a12.6 12.6 0 0 0 4.84-5.56l11.52 3.48c-2 4.72-5.1 8.38-9.3 11a25.43 25.43 0 0 1-13.79 3.91Zm-18-24.35v-8.8h35.96v8.8h-35.97ZM753.2 163.06a47.7 47.7 0 0 1-10.17.82c-3.29-.06-6.24-.66-8.86-1.79a12.28 12.28 0 0 1-5.95-5.47 15.6 15.6 0 0 1-1.89-6.92c-.06-2.36-.1-5.02-.1-7.99V96.25h11.62v44.78c0 2.1.02 3.94.05 5.52.07 1.58.4 2.88 1.02 3.88 1.16 1.93 3.02 3.01 5.57 3.24 2.55.23 5.45.1 8.71-.39v9.78Zm-36.45-43.13v-9.15h36.45v9.15h-36.45Z" fill="#007DF2"/><defs><linearGradient id="a" x1="188.71" y1=".73" x2="188.71" y2="101.2" gradientUnits="userSpaceOnUse"><stop stop-color="#007DF2"/><stop offset="1" stop-color="#165591"/></linearGradient><linearGradient id="b" x1="134.1" y1="24.76" x2="-24.61" y2="101.2" gradientUnits="userSpaceOnUse"><stop stop-color="#007DF2"/><stop offset="1" stop-color="#0E5BA4"/></linearGradient><linearGradient id="c" x1="63.49" y1="177.53" x2="63.49" y2="277.46" gradientUnits="userSpaceOnUse"><stop stop-color="#007DF2"/><stop offset="1" stop-color="#0B263F"/></linearGradient><linearGradient id="d" x1="100.33" y1="116.06" x2="177.84" y2="99" gradientUnits="userSpaceOnUse"><stop stop-color="#007DF2"/><stop offset="1" stop-color="#01386A"/></linearGradient><linearGradient id="e" x1="150.31" y1="152.93" x2="88.58" y2="152.96" gradientUnits="userSpaceOnUse"><stop stop-color="#007DF2"/><stop offset=".72" stop-color="#05192C"/></linearGradient><linearGradient id="f" x1="110.88" y1="104.11" x2="93.59" y2="191.01" gradientUnits="userSpaceOnUse"><stop stop-color="#02192F"/><stop offset=".5" stop-color="#0084FF"/><stop offset="1" stop-color="#0A345C"/></linearGradient></defs></svg>